<svg xmlns="http://www.w3.org/2000/svg" xmlns:xlink="http://www.w3.org/1999/xlink" width="500" zoomAndPan="magnify" viewBox="0 0 375 374.999991" height="500" preserveAspectRatio="xMidYMid meet" version="1.0"><defs><clipPath id="9eaff5ed74"><path d="M 4 4 L 371 4 L 371 371 L 4 371 Z M 4 4 " clip-rule="nonzero"/></clipPath><clipPath id="f89ae1b3c0"><path d="M 200.285156 7.847656 L 236.640625 30.160156 C 245.109375 35.355469 254.347656 39.183594 264.011719 41.496094 L 305.496094 51.425781 C 314.445312 53.566406 321.433594 60.554688 323.574219 69.503906 L 333.503906 110.988281 C 335.816406 120.652344 339.644531 129.890625 344.839844 138.359375 L 367.152344 174.714844 C 371.96875 182.558594 371.96875 192.441406 367.152344 200.285156 L 344.839844 236.640625 C 339.644531 245.109375 335.816406 254.347656 333.503906 264.011719 L 323.574219 305.496094 C 321.433594 314.445312 314.445312 321.433594 305.496094 323.574219 L 264.011719 333.503906 C 254.347656 335.816406 245.109375 339.644531 236.640625 344.839844 L 200.285156 367.152344 C 192.441406 371.96875 182.558594 371.96875 174.714844 367.152344 L 138.359375 344.839844 C 129.890625 339.644531 120.652344 335.816406 110.988281 333.503906 L 69.503906 323.574219 C 60.554688 321.433594 53.566406 314.445312 51.425781 305.496094 L 41.496094 264.011719 C 39.183594 254.347656 35.355469 245.109375 30.160156 236.640625 L 7.847656 200.285156 C 3.03125 192.441406 3.03125 182.558594 7.847656 174.714844 L 30.160156 138.359375 C 35.355469 129.890625 39.183594 120.652344 41.496094 110.988281 L 51.425781 69.503906 C 53.566406 60.554688 60.554688 53.566406 69.503906 51.425781 L 110.988281 41.496094 C 120.652344 39.183594 129.890625 35.355469 138.359375 30.160156 L 174.714844 7.847656 C 182.558594 3.03125 192.441406 3.03125 200.285156 7.847656 Z M 200.285156 7.847656 " clip-rule="nonzero"/></clipPath><clipPath id="b5452981c9"><path d="M 114.523438 76.71875 L 260.773438 76.71875 L 260.773438 297.96875 L 114.523438 297.96875 Z M 114.523438 76.71875 " clip-rule="nonzero"/></clipPath></defs><g clip-path="url(#9eaff5ed74)"><g clip-path="url(#f89ae1b3c0)"><rect x="-37.5" width="450" fill="#ffffff" y="-37.499999" height="449.999989" fill-opacity="1"/></g></g><g clip-path="url(#b5452981c9)"><path fill="#ffffff" d="M 188.378906 -17.003906 C 191.667969 -17.003906 194.957031 -16.925781 198.242188 -16.761719 C 201.527344 -16.601562 204.804688 -16.359375 208.078125 -16.039062 C 211.351562 -15.714844 214.617188 -15.3125 217.871094 -14.832031 C 221.125 -14.347656 224.363281 -13.785156 227.589844 -13.144531 C 230.816406 -12.503906 234.023438 -11.78125 237.214844 -10.980469 C 240.40625 -10.183594 243.574219 -9.304688 246.722656 -8.351562 C 249.871094 -7.394531 252.992188 -6.363281 256.089844 -5.257812 C 259.1875 -4.148438 262.253906 -2.964844 265.292969 -1.707031 C 268.332031 -0.449219 271.339844 0.886719 274.3125 2.292969 C 277.285156 3.699219 280.222656 5.175781 283.125 6.726562 C 286.023438 8.277344 288.886719 9.898438 291.707031 11.589844 C 294.527344 13.28125 297.308594 15.039062 300.042969 16.867188 C 302.777344 18.695312 305.464844 20.585938 308.105469 22.546875 C 310.75 24.507812 313.339844 26.53125 315.882812 28.617188 C 318.425781 30.703125 320.917969 32.851562 323.355469 35.058594 C 325.792969 37.269531 328.171875 39.535156 330.5 41.863281 C 332.824219 44.1875 335.09375 46.570312 337.300781 49.007812 C 339.511719 51.445312 341.65625 53.933594 343.746094 56.476562 C 345.832031 59.019531 347.855469 61.613281 349.8125 64.253906 C 351.773438 66.894531 353.667969 69.585938 355.496094 72.320312 C 357.320312 75.054688 359.082031 77.832031 360.773438 80.652344 C 362.464844 83.476562 364.082031 86.335938 365.632812 89.238281 C 367.183594 92.136719 368.664062 95.074219 370.070312 98.050781 C 371.476562 101.023438 372.808594 104.027344 374.066406 107.066406 C 375.328125 110.105469 376.507812 113.175781 377.617188 116.273438 C 378.726562 119.367188 379.757812 122.492188 380.710938 125.640625 C 381.667969 128.785156 382.542969 131.957031 383.34375 135.144531 C 384.144531 138.335938 384.863281 141.546875 385.503906 144.773438 C 386.148438 147.996094 386.707031 151.238281 387.191406 154.492188 C 387.675781 157.746094 388.078125 161.007812 388.398438 164.28125 C 388.722656 167.554688 388.964844 170.835938 389.125 174.121094 C 389.285156 177.40625 389.367188 180.691406 389.367188 183.984375 C 389.367188 187.273438 389.285156 190.558594 389.125 193.84375 C 388.964844 197.128906 388.722656 200.410156 388.398438 203.683594 C 388.078125 206.957031 387.675781 210.21875 387.191406 213.472656 C 386.707031 216.726562 386.148438 219.96875 385.503906 223.195312 C 384.863281 226.417969 384.144531 229.628906 383.34375 232.820312 C 382.542969 236.007812 381.667969 239.179688 380.710938 242.328125 C 379.757812 245.472656 378.726562 248.597656 377.617188 251.695312 C 376.507812 254.789062 375.328125 257.859375 374.066406 260.898438 C 372.808594 263.9375 371.476562 266.941406 370.070312 269.917969 C 368.664062 272.890625 367.183594 275.828125 365.632812 278.726562 C 364.082031 281.628906 362.464844 284.488281 360.773438 287.3125 C 359.082031 290.132812 357.320312 292.910156 355.496094 295.644531 C 353.667969 298.378906 351.773438 301.070312 349.8125 303.710938 C 347.855469 306.351562 345.832031 308.945312 343.746094 311.488281 C 341.65625 314.03125 339.511719 316.519531 337.300781 318.957031 C 335.09375 321.394531 332.824219 323.777344 330.5 326.101562 C 328.171875 328.429688 325.792969 330.695312 323.355469 332.90625 C 320.917969 335.113281 318.425781 337.261719 315.882812 339.347656 C 313.339844 341.433594 310.75 343.457031 308.105469 345.417969 C 305.464844 347.378906 302.777344 349.269531 300.042969 351.097656 C 297.308594 352.925781 294.527344 354.683594 291.707031 356.375 C 288.886719 358.066406 286.023438 359.6875 283.125 361.238281 C 280.222656 362.789062 277.285156 364.265625 274.3125 365.671875 C 271.339844 367.078125 268.332031 368.414062 265.292969 369.671875 C 262.253906 370.929688 259.1875 372.113281 256.089844 373.222656 C 252.992188 374.328125 249.871094 375.363281 246.722656 376.316406 C 243.574219 377.269531 240.40625 378.148438 237.214844 378.949219 C 234.023438 379.746094 230.816406 380.46875 227.589844 381.109375 C 224.363281 381.75 221.125 382.3125 217.871094 382.796875 C 214.617188 383.277344 211.351562 383.679688 208.078125 384.003906 C 204.804688 384.324219 201.527344 384.566406 198.242188 384.730469 C 194.957031 384.890625 191.667969 384.972656 188.378906 384.972656 C 185.089844 384.972656 181.800781 384.890625 178.515625 384.730469 C 175.230469 384.566406 171.953125 384.324219 168.679688 384.003906 C 165.40625 383.679688 162.140625 383.277344 158.886719 382.796875 C 155.632812 382.3125 152.394531 381.75 149.167969 381.109375 C 145.941406 380.46875 142.734375 379.746094 139.542969 378.949219 C 136.351562 378.148438 133.183594 377.269531 130.035156 376.316406 C 126.886719 375.363281 123.765625 374.328125 120.667969 373.222656 C 117.570312 372.113281 114.503906 370.929688 111.464844 369.671875 C 108.425781 368.414062 105.417969 367.078125 102.445312 365.671875 C 99.472656 364.265625 96.535156 362.789062 93.632812 361.238281 C 90.734375 359.6875 87.871094 358.066406 85.050781 356.375 C 82.230469 354.683594 79.449219 352.925781 76.714844 351.097656 C 73.980469 349.269531 71.292969 347.378906 68.648438 345.417969 C 66.007812 343.457031 63.414062 341.433594 60.871094 339.347656 C 58.332031 337.261719 55.839844 335.113281 53.402344 332.90625 C 50.964844 330.695312 48.585938 328.429688 46.257812 326.101562 C 43.933594 323.777344 41.664062 321.394531 39.457031 318.957031 C 37.246094 316.519531 35.097656 314.03125 33.011719 311.488281 C 30.925781 308.945312 28.902344 306.351562 26.941406 303.710938 C 24.984375 301.070312 23.089844 298.378906 21.261719 295.644531 C 19.433594 292.910156 17.675781 290.132812 15.984375 287.3125 C 14.292969 284.488281 12.671875 281.628906 11.121094 278.726562 C 9.570312 275.828125 8.09375 272.890625 6.6875 269.917969 C 5.28125 266.941406 3.949219 263.9375 2.691406 260.898438 C 1.429688 257.859375 0.246094 254.789062 -0.859375 251.695312 C -1.96875 248.597656 -3 245.472656 -3.957031 242.328125 C -4.910156 239.179688 -5.785156 236.007812 -6.585938 232.820312 C -7.386719 229.628906 -8.105469 226.417969 -8.746094 223.195312 C -9.390625 219.96875 -9.953125 216.726562 -10.433594 213.472656 C -10.917969 210.21875 -11.320312 206.957031 -11.640625 203.683594 C -11.964844 200.410156 -12.207031 197.128906 -12.367188 193.84375 C -12.527344 190.558594 -12.609375 187.273438 -12.609375 183.984375 C -12.609375 180.691406 -12.527344 177.40625 -12.367188 174.121094 C -12.207031 170.835938 -11.964844 167.554688 -11.640625 164.28125 C -11.320312 161.007812 -10.917969 157.746094 -10.433594 154.492188 C -9.953125 151.238281 -9.390625 147.996094 -8.746094 144.773438 C -8.105469 141.546875 -7.386719 138.335938 -6.585938 135.144531 C -5.785156 131.957031 -4.910156 128.785156 -3.957031 125.640625 C -3 122.492188 -1.96875 119.367188 -0.859375 116.273438 C 0.246094 113.175781 1.429688 110.105469 2.691406 107.066406 C 3.949219 104.027344 5.28125 101.023438 6.6875 98.050781 C 8.09375 95.074219 9.570312 92.136719 11.121094 89.238281 C 12.671875 86.335938 14.292969 83.476562 15.984375 80.652344 C 17.675781 77.832031 19.433594 75.054688 21.261719 72.320312 C 23.089844 69.585938 24.984375 66.894531 26.941406 64.253906 C 28.902344 61.613281 30.925781 59.019531 33.011719 56.476562 C 35.097656 53.933594 37.246094 51.445312 39.457031 49.007812 C 41.664062 46.570312 43.933594 44.1875 46.257812 41.863281 C 48.585938 39.535156 50.964844 37.269531 53.402344 35.058594 C 55.839844 32.851562 58.332031 30.703125 60.871094 28.617188 C 63.414062 26.53125 66.007812 24.507812 68.648438 22.546875 C 71.292969 20.585938 73.980469 18.695312 76.714844 16.867188 C 79.449219 15.039062 82.230469 13.28125 85.050781 11.589844 C 87.871094 9.898438 90.734375 8.277344 93.632812 6.726562 C 96.535156 5.175781 99.472656 3.699219 102.445312 2.292969 C 105.417969 0.886719 108.425781 -0.449219 111.464844 -1.707031 C 114.503906 -2.964844 117.570312 -4.148438 120.667969 -5.257812 C 123.765625 -6.363281 126.886719 -7.394531 130.035156 -8.351562 C 133.183594 -9.304688 136.351562 -10.183594 139.542969 -10.980469 C 142.734375 -11.78125 145.941406 -12.503906 149.167969 -13.144531 C 152.394531 -13.785156 155.632812 -14.347656 158.886719 -14.832031 C 162.140625 -15.3125 165.40625 -15.714844 168.679688 -16.039062 C 171.953125 -16.359375 175.230469 -16.601562 178.515625 -16.761719 C 181.800781 -16.925781 185.089844 -17.003906 188.378906 -17.003906 Z M 188.378906 -17.003906 " fill-opacity="1" fill-rule="evenodd"/></g><path fill="#000000" d="M 149.832031 92.09375 C 144.800781 98.828125 146.21875 108.34375 153.003906 113.335938 C 176.417969 130.582031 189.84375 156.953125 189.84375 185.695312 C 189.84375 214.4375 176.417969 240.8125 153.003906 258.054688 C 146.222656 263.050781 144.796875 272.5625 149.832031 279.296875 C 154.867188 286.03125 164.441406 287.441406 171.226562 282.445312 C 178.453125 277.117188 185.019531 271.078125 190.929688 264.324219 L 234.289062 264.324219 C 242.734375 264.324219 249.582031 257.527344 249.582031 249.140625 C 249.582031 240.753906 242.734375 233.957031 234.289062 233.957031 L 210.339844 233.957031 C 216.929688 219.007812 220.429688 202.664062 220.429688 185.695312 C 220.429688 168.726562 216.929688 152.382812 210.339844 137.433594 L 234.289062 137.433594 C 242.734375 137.433594 249.582031 130.636719 249.582031 122.25 C 249.582031 113.867188 242.734375 107.066406 234.289062 107.066406 L 190.929688 107.066406 C 185.019531 100.3125 178.453125 94.273438 171.226562 88.945312 C 164.441406 83.949219 154.867188 85.363281 149.832031 92.09375 Z M 149.832031 92.09375 " fill-opacity="1" fill-rule="nonzero"/><path fill="#000000" d="M 125.664062 181.164062 C 125.664062 168.644531 135.8125 158.496094 148.332031 158.496094 C 160.851562 158.496094 171 168.644531 171 181.164062 C 171 193.679688 160.851562 203.832031 148.332031 203.832031 C 135.8125 203.832031 125.664062 193.679688 125.664062 181.164062 Z M 125.664062 181.164062 " fill-opacity="1" fill-rule="evenodd"/></svg>